REM DIRINDEX 1\2,1\3,1\4,1\5
REM DIRNAME "folder01","folder02","folder03","folder04","folder05"
TITLE ""
FILE "P1Q_t_1220-1229.mp3" MP3
  TRACK 01 AUDIO
    TITLE "3:cjc173_4626"
    INDEX 01 00:00:00
  TRACK 02 AUDIO
    TITLE "0:"
    INDEX 01 00:01:02
  TRACK 03 AUDIO
    TITLE "4:cjc173_4627"
    INDEX 01 00:01:23
  TRACK 04 AUDIO
    TITLE "0:"
    INDEX 01 00:04:55
  TRACK 05 AUDIO
    TITLE "5:cjc173_4628"
    INDEX 01 00:04:75
  TRACK 06 AUDIO
    TITLE "0:"
    INDEX 01 00:09:05
  TRACK 07 AUDIO
    TITLE "3:cjc173_4629"
    INDEX 01 00:09:50
  TRACK 08 AUDIO
    TITLE "0:"
    INDEX 01 00:10:73
  TRACK 09 AUDIO
    TITLE "4:cjc173_4630"
    INDEX 01 00:11:18
  TRACK 10 AUDIO
    TITLE "0:"
    INDEX 01 00:12:45
  TRACK 11 AUDIO
    TITLE "5:cjc173_4631"
    INDEX 01 00:12:64
  TRACK 12 AUDIO
    TITLE "0:"
    INDEX 01 00:17:40
  TRACK 13 AUDIO
    TITLE "3:cjc173_4632"
    INDEX 01 00:18:10
  TRACK 14 AUDIO
    TITLE "0:"
    INDEX 01 00:19:31
  TRACK 15 AUDIO
    TITLE "4:cjc173_4633"
    INDEX 01 00:19:51
  TRACK 16 AUDIO
    TITLE "0:"
    INDEX 01 00:23:31
  TRACK 17 AUDIO
    TITLE "5:cjc173_4634"
    INDEX 01 00:23:51
  TRACK 18 AUDIO
    TITLE "0:"
    INDEX 01 00:28:75
  TRACK 19 AUDIO
    TITLE "3:cjc173_4635"
    INDEX 01 00:29:45
  TRACK 20 AUDIO
    TITLE "0:"
    INDEX 01 00:31:11
  TRACK 21 AUDIO
    TITLE "4:cjc173_4636"
    INDEX 01 00:31:30
  TRACK 22 AUDIO
    TITLE "0:"
    INDEX 01 00:33:55
  TRACK 23 AUDIO
    TITLE "5:cjc173_4637"
    INDEX 01 00:33:74
  TRACK 24 AUDIO
    TITLE "0:"
    INDEX 01 00:38:30
  TRACK 25 AUDIO
    TITLE "3:cjc173_4638"
    INDEX 01 00:39:01
  TRACK 26 AUDIO
    TITLE "0:"
    INDEX 01 00:40:14
  TRACK 27 AUDIO
    TITLE "4:cjc173_4639"
    INDEX 01 00:40:35
  TRACK 28 AUDIO
    TITLE "0:"
    INDEX 01 00:45:09
  TRACK 29 AUDIO
    TITLE "5:cjc173_4640"
    INDEX 01 00:45:31
  TRACK 30 AUDIO
    TITLE "0:"
    INDEX 01 00:50:36
  TRACK 31 AUDIO
    TITLE "3:cjc173_4641"
    INDEX 01 00:51:06
  TRACK 32 AUDIO
    TITLE "0:"
    INDEX 01 00:52:23
  TRACK 33 AUDIO
    TITLE "4:cjc173_4642"
    INDEX 01 00:52:42
  TRACK 34 AUDIO
    TITLE "0:"
    INDEX 01 00:53:75
  TRACK 35 AUDIO
    TITLE "5:cjc173_4643"
    INDEX 01 00:54:20
  TRACK 36 AUDIO
    TITLE "0:"
    INDEX 01 00:59:64
  TRACK 37 AUDIO
    TITLE "3:cjc173_4644"
    INDEX 01 01:00:34
  TRACK 38 AUDIO
    TITLE "0:"
    INDEX 01 01:01:47
  TRACK 39 AUDIO
    TITLE "4:cjc173_4645"
    INDEX 01 01:01:69
  TRACK 40 AUDIO
    TITLE "0:"
    INDEX 01 01:07:09
  TRACK 41 AUDIO
    TITLE "5:cjc173_4646"
    INDEX 01 01:07:28
  TRACK 42 AUDIO
    TITLE "0:"
    INDEX 01 01:12:65
  TRACK 43 AUDIO
    TITLE "3:cjc173_4647"
    INDEX 01 01:13:37
  TRACK 44 AUDIO
    TITLE "0:"
    INDEX 01 01:14:56
  TRACK 45 AUDIO
    TITLE "4:cjc173_4648"
    INDEX 01 01:14:75
  TRACK 46 AUDIO
    TITLE "0:"
    INDEX 01 01:16:68
  TRACK 47 AUDIO
    TITLE "5:cjc173_4649"
    INDEX 01 01:17:13
  TRACK 48 AUDIO
    TITLE "0:"
    INDEX 01 01:22:22
  TRACK 49 AUDIO
    TITLE "3:cjc173_4650"
    INDEX 01 01:22:67
  TRACK 50 AUDIO
    TITLE "0:"
    INDEX 01 01:24:03
  TRACK 51 AUDIO
    TITLE "4:cjc173_4651"
    INDEX 01 01:24:25
  TRACK 52 AUDIO
    TITLE "0:"
    INDEX 01 01:29:65
  TRACK 53 AUDIO
    TITLE "5:cjc173_4652"
    INDEX 01 01:30:12
  TRACK 54 AUDIO
    TITLE "0:"
    INDEX 01 01:35:36
  TRACK 55 AUDIO
    TITLE "3:cjc173_4653"
    INDEX 01 01:36:06
  TRACK 56 AUDIO
    TITLE "0:"
    INDEX 01 01:37:22
  TRACK 57 AUDIO
    TITLE "4:cjc173_4654"
    INDEX 01 01:37:39
  TRACK 58 AUDIO
    TITLE "0:"
    INDEX 01 01:40:10
  TRACK 59 AUDIO
    TITLE "5:cjc173_4655"
    INDEX 01 01:40:30
  TRACK 60 AUDIO
    TITLE "0:"
    INDEX 01 01:45:31
